<?xml version="1.0" encoding="UTF-8"?>
<svg xmlns="http://www.w3.org/2000/svg" width="2000" height="2000" viewBox="0 0 2000 2000" role="img" aria-label="SPEED AD logo">
  <title>SPEED AD logo</title>
  <path d="M 397.667 158.667 L 464.973 231.5 C 485.617 252.4 518.03 285.264 537.003 304.531 C 555.977 323.797 602.775 371.207 641 409.884 C 679.225 448.562 719.725 489.553 731 500.977 C 748.334 518.539 753.044 522.718 761.5 528.039 C 788.927 545.3 844.376 581.563 903 620.577 C 943.486 647.521 959.16 658.063 998 684.471 C 1014.337 695.579 1052.672 722.081 1061.088 728.086 C 1065.262 731.064 1073.239 736.65 1078.815 740.5 C 1098.863 754.341 1147.751 789.497 1177.5 811.465 C 1184.1 816.338 1194.45 823.953 1200.5 828.386 C 1217.79 841.056 1299.343 902.127 1322 919.372 C 1333.275 927.954 1350.15 940.79 1359.5 947.896 C 1381.05 964.274 1381.406 964.62 1388.463 976 C 1392.89 983.139 1439 1074.763 1439 1076.42 C 1439 1076.585 1446.699 1092.42 1456.11 1111.61 C 1492.795 1186.419 1501.078 1203.347 1512.574 1227 C 1548.465 1300.843 1551.018 1305.441 1556.5 1306.11 C 1573.011 1308.123 1597.68 1312.48 1613 1316.087 C 1633.181 1320.838 1639.324 1322.512 1653.495 1327.122 C 1661.742 1329.805 1668.857 1332 1669.304 1332 C 1670.063 1332 1690.146 1339.71 1705 1345.703 C 1714.163 1349.4 1731.916 1358.056 1732.597 1359.157 C 1733.154 1360.058 1732.177 1359.933 1723.5 1357.993 C 1716.716 1356.477 1704.945 1354.206 1695 1352.495 C 1689.775 1351.596 1683.7 1350.458 1681.5 1349.967 C 1679.3 1349.476 1675.475 1348.807 1673 1348.479 C 1670.525 1348.152 1666.25 1347.479 1663.5 1346.983 C 1658.719 1346.122 1643.831 1344.222 1624.5 1342.005 C 1608.461 1340.166 1562.061 1338.539 1560.827 1339.773 C 1560.025 1340.575 1560.839 1343.542 1563.822 1350.687 C 1566.075 1356.084 1573.838 1374.67 1581.073 1391.99 C 1588.308 1409.309 1595.549 1427.064 1597.164 1431.445 C 1603.317 1448.134 1601.84 1447.269 1616.906 1442.993 C 1658 1433 1716 1424 1777 1430 C 1832 1436 1873 1459 1901.5 1488.5 L 1895.986 1472.5 C 1889.332 1451.259 1857.252 1427.055 1794.5 1395.93 C 1780.2 1388.837 1765.125 1381.238 1761 1379.044 L 1759 1377.4 L 1764 1375.591 C 1777.272 1376.267 1789.74 1378.091 1807.5 1381.952 C 1821.458 1384.987 1836.568 1387.881 1849.115 1389.923 C 1852.754 1390.516 1861.304 1390.999 1868.115 1390.999 C 1905.802 1390.994 1931.104 1377.653 1942.997 1351.513 C 1944.245 1348.77 1945.88 1346.07 1946.632 1345.513 C 1949.168 1343.631 1949.394 1330.651 1947.108 1318.164 C 1936.162 1258.389 1873.692 1190.436 1773.5 1129.32 C 1742.284 1110.278 1696.586 1085.906 1667 1072.52 C 1659.215 1068.998 1652.35 1065.871 1638.321 1059.459 C 1635.472 1058.157 1628.047 1055.025 1621.821 1052.5 C 1615.594 1049.974 1609.6 1047.502 1608.5 1047.007 C 1606.266 1046 1596.948 1042.344 1580.5 1036.02 C 1565.345 1030.194 1564.441 1029.078 1575.275 1029.571 C 1599.712 1030.682 1649.109 1041.948 1691.35 1056.044 C 1711.131 1062.644 1712 1062.815 1712 1060.104 C 1712 1053.659 1647.228 985.96 1605.5 948.79 C 1590.622 935.537 1579.051 925.449 1568.506 916.538 C 1562.023 911.059 1556.22 906.085 1555.609 905.484 C 1554.999 904.884 1551.988 902.392 1548.918 899.946 C 1545.848 897.501 1533.698 887.599 1521.918 877.942 C 1501.965 861.585 1493.876 855.174 1469.113 836.093 C 1388.907 774.294 1285.067 699.438 1204.5 645.34 C 1148.63 607.825 1115.824 586.143 1088.5 568.673 C 1055.091 547.312 1011.066 519.446 993.5 508.543 C 967.191 492.213 964.735 490.694 945.5 478.851 C 936.15 473.094 918.825 462.422 907 455.135 C 858.613 425.319 747.652 358.389 717 340.531 C 709.575 336.204 700.8 331.008 697.5 328.983 C 694.2 326.959 688.35 323.51 684.5 321.321 C 677.318 317.236 644.557 298.332 628.5 289.007 C 623.55 286.133 618.121 282.985 616.436 282.012 C 614.751 281.039 607.326 276.731 599.936 272.438 C 592.546 268.145 582 262.096 576.5 258.995 C 571 255.895 562.225 250.878 557 247.847 C 551.775 244.816 545.25 241.083 542.5 239.55 C 527.406 231.139 419.862 169.762 410.764 164.367 L 397.667 158.667 M 227.401 458.398 L 236.5 472.475 C 249.187 488.409 251.52 491.392 259.979 502.5 C 267.866 512.856 275.717 522.884 299.5 552.983 C 305 559.943 311.525 568.251 314 571.445 C 316.475 574.639 320.133 579.184 322.128 581.545 C 324.123 583.907 329.287 590.263 333.603 595.67 C 337.919 601.076 341.707 605.725 342.02 606 C 342.333 606.275 351.428 617.525 362.231 631 C 383.86 657.978 403.951 682.818 408.32 687.986 C 411.321 691.534 412.856 691.979 429 693.983 C 433.125 694.495 441 695.619 446.5 696.481 C 452 697.343 460.1 698.486 464.5 699.023 C 468.9 699.559 475.2 700.423 478.5 700.944 C 481.8 701.464 489.675 702.611 496 703.492 C 502.325 704.373 509.975 705.52 513 706.04 C 544.369 711.435 544.316 711.467 528.75 696.519 C 523.112 691.105 512.867 681.236 505.982 674.588 C 487.855 657.084 470.002 639.947 457.968 628.5 C 452.186 623 442.965 614.214 437.478 608.976 C 431.99 603.737 422.325 594.737 416 588.976 C 409.675 583.214 404.275 578.275 404 578 C 390.834 564.834 342.238 530.956 258.11 476.296 C 243.045 466.508 230.103 458.138 229.349 457.695 L 227.401 458.398 M 1577 1171.643 C 1577 1172.852 1588.144 1178.04 1609 1186.539 C 1655.727 1205.581 1674.753 1214.889 1697.5 1229.835 C 1716.01 1241.998 1743.228 1266.204 1741.514 1268.978 C 1737.701 1275.147 1736.879 1298.918 1740.042 1311.5 C 1746.848 1338.563 1764.57 1357.155 1792.364 1366.388 C 1810.888 1372.541 1838.804 1367.581 1847.999 1356.501 C 1850.835 1353.084 1852.711 1352.864 1856.586 1355.494 C 1858.617 1356.872 1861.059 1358 1862.011 1358 C 1866.394 1358 1890 1339.685 1890 1336.285 C 1890 1328.001 1869.724 1298.474 1854.195 1284.146 C 1796.415 1230.83 1730.754 1197.477 1646.5 1178.644 C 1619.006 1172.498 1577 1168.267 1577 1171.643 M 905 1437.399 L 1085.979 1516.424 L 1261.967 1711.923 C 1132.275 1638.779 1101.411 1614.528 1068.342 1588.073 C 1008.818 1536.265 958.113 1487.765 906.019 1437.17 Z" stroke="none" fill="#102a4c" fill-rule="evenodd"/>
  <path d="M 423.750 740.579 C 421.663 742.678, 425.436 746.979, 455.250 776.486 C 524.980 845.499, 679.047 999.457, 713.660 1034.714 C 733.754 1055.181, 750.938 1072.156, 751.847 1072.435 C 752.756 1072.715, 760.250 1073.631, 768.500 1074.472 C 776.750 1075.313, 790.025 1076.697, 798 1077.547 C 805.975 1078.398, 816.550 1079.513, 821.500 1080.024 C 853.995 1083.384, 860.846 1084.122, 872.500 1085.515 C 879.650 1086.370, 889.550 1087.479, 894.500 1087.979 C 899.450 1088.479, 910.250 1089.608, 918.500 1090.487 C 926.750 1091.366, 939.575 1092.725, 947 1093.506 C 954.425 1094.287, 965 1095.413, 970.500 1096.008 C 976 1096.603, 987.025 1097.734, 995 1098.522 C 1011.393 1100.140, 1025.174 1101.841, 1025.635 1102.302 C 1025.805 1102.472, 1021.997 1108.436, 1017.173 1115.556 C 978.017 1173.334, 979.987 1170.648, 976.224 1171.388 C 974.726 1171.682, 961.800 1173.987, 947.500 1176.510 C 933.200 1179.033, 908 1183.528, 891.500 1186.500 C 875 1189.472, 852.500 1193.504, 841.500 1195.459 C 830.500 1197.415, 817.900 1199.679, 813.500 1200.491 C 797.969 1203.354, 777.251 1206.935, 755.573 1210.502 C 743.514 1212.487, 730.689 1215.154, 727.073 1216.429 C 718.992 1219.280, 636.848 1250.604, 632 1252.683 C 630.075 1253.509, 624.450 1255.683, 619.500 1257.515 C 609.154 1261.344, 569.487 1276.588, 566.500 1277.884 C 562.057 1279.811, 558.292 1281.246, 552.542 1283.206 C 549.219 1284.339, 546.050 1285.578, 545.500 1285.961 C 544.950 1286.343, 542.250 1287.463, 539.500 1288.449 C 534.720 1290.164, 521.303 1295.325, 503 1302.489 C 480.365 1311.350, 449.617 1323.274, 444 1325.369 C 443.175 1325.677, 434.852 1329.003, 425.505 1332.760 C 402.215 1342.121, 402.440 1345.216, 426.178 1342.012 C 430.205 1341.468, 438 1340.589, 443.500 1340.059 C 456.955 1338.761, 481.559 1336.234, 492 1335.076 C 508.251 1333.274, 530.560 1330.928, 540.500 1329.977 C 546 1329.450, 553.875 1328.585, 558 1328.054 C 562.125 1327.523, 572.250 1326.390, 580.500 1325.536 C 588.750 1324.682, 598.875 1323.541, 603 1323.001 C 607.125 1322.460, 617.250 1321.322, 625.500 1320.472 C 633.750 1319.623, 646.350 1318.279, 653.500 1317.486 C 682.779 1314.239, 694.998 1312.910, 704.500 1311.937 C 710 1311.374, 718.325 1310.471, 723 1309.930 C 727.675 1309.389, 736 1308.510, 741.500 1307.977 C 747 1307.444, 757.575 1306.332, 765 1305.507 C 772.425 1304.682, 782.775 1303.563, 788 1303.021 C 793.225 1302.479, 801.325 1301.565, 806 1300.991 C 820.887 1299.163, 850.168 1295.921, 860.146 1294.996 C 869.407 1294.138, 878.269 1293.138, 895.500 1291.007 C 899.900 1290.462, 908 1289.539, 913.500 1288.955 C 927.554 1287.463, 949.048 1285.082, 958.500 1283.969 C 962.900 1283.452, 972.800 1282.348, 980.500 1281.517 C 988.200 1280.687, 1000.125 1279.309, 1007 1278.457 C 1013.875 1277.605, 1022.255 1276.646, 1025.623 1276.327 C 1031.746 1275.747, 1031.746 1275.747, 1041.721 1259.623 C 1056.593 1235.586, 1109.845 1148.328, 1113.505 1142 C 1115.254 1138.975, 1123.116 1125.925, 1130.976 1113 C 1138.835 1100.075, 1147.382 1085.900, 1149.969 1081.500 C 1152.555 1077.100, 1157.709 1068.605, 1161.421 1062.622 L 1168.172 1051.744 1158.888 1032.479 C 1149.604 1013.215, 1149.604 1013.215, 1144.552 1012.684 C 1137.144 1011.907, 1123.212 1010.265, 1109 1008.495 C 1102.125 1007.639, 1090.200 1006.288, 1082.500 1005.492 C 1074.800 1004.696, 1066.475 1003.784, 1064 1003.464 C 1058.031 1002.693, 1038.822 1000.446, 1021.500 998.491 C 1013.800 997.622, 1004.350 996.493, 1000.500 995.982 C 996.650 995.471, 986.975 994.343, 979 993.476 C 971.025 992.608, 961.575 991.493, 958 990.998 C 954.425 990.502, 948.350 989.836, 944.500 989.517 C 940.650 989.199, 934.575 988.520, 931 988.010 C 927.425 987.499, 917.975 986.371, 910 985.502 C 902.025 984.634, 892.125 983.481, 888 982.940 C 883.875 982.399, 876.450 981.503, 871.500 980.949 C 866.550 980.395, 856.650 979.236, 849.500 978.374 C 842.350 977.512, 833.958 976.513, 830.851 976.153 C 825.444 975.528, 824.955 975.222, 819.422 969 C 804.292 951.988, 769.161 914.078, 757.105 901.754 C 749.709 894.194, 743.889 887.778, 744.170 887.496 C 744.611 887.056, 769.342 889.361, 803 892.980 C 808.225 893.542, 817 894.447, 822.500 894.991 C 828 895.535, 835.875 896.425, 840 896.968 C 844.125 897.512, 854.250 898.666, 862.500 899.533 C 877.362 901.096, 894.601 903.031, 911 904.979 C 915.675 905.534, 925.800 906.691, 933.500 907.548 C 941.200 908.406, 950.650 909.537, 954.500 910.060 C 958.350 910.584, 965.550 911.445, 970.500 911.973 C 979.374 912.919, 997.392 915.002, 1014 917 C 1022.183 917.985, 1039.032 919.866, 1059 922.024 C 1064.225 922.589, 1075.688 923.851, 1084.474 924.829 C 1101.999 926.779, 1100.331 927.288, 1117.500 914.760 C 1119.700 913.154, 1127.800 907.401, 1135.500 901.975 C 1173.346 875.303, 1180.375 870.004, 1180.793 867.836 C 1180.999 866.765, 1178.561 864.777, 1173.299 861.728 C 1139.707 842.262, 1128.205 835.512, 1119.500 830.155 C 1109.500 824.001, 1109.500 824.001, 1093 822.043 C 1083.925 820.967, 1072.900 819.612, 1068.500 819.033 C 1059.403 817.835, 1001.094 810.770, 981.500 808.491 C 974.350 807.660, 963.325 806.313, 957 805.499 C 945.798 804.057, 883.045 796.275, 860 793.469 C 853.675 792.699, 839.275 790.913, 828 789.500 C 791.019 784.866, 783.650 783.960, 771 782.494 C 764.125 781.697, 754.900 780.570, 750.500 779.990 C 730.804 777.393, 718.884 775.870, 711 774.942 C 706.325 774.392, 697.325 773.257, 691 772.420 C 684.675 771.583, 674.325 770.259, 668 769.478 C 639.534 765.964, 631.990 765.014, 624.500 764 C 620.100 763.405, 611.100 762.278, 604.500 761.496 C 597.900 760.714, 586.650 759.369, 579.500 758.507 C 572.350 757.645, 562.225 756.509, 557 755.983 C 551.775 755.457, 546.375 754.799, 545 754.521 C 543.625 754.243, 538.450 753.545, 533.500 752.969 C 508.680 750.082, 499.540 748.975, 489 747.580 C 473.455 745.522, 462.156 744.200, 445.500 742.489 C 437.800 741.698, 429.925 740.775, 428 740.438 C 426.075 740.100, 424.163 740.164, 423.750 740.579  M 1277.509 925.227 C 1275.747 927.702, 1255 962.968, 1255 963.488 C 1255 963.664, 1251.693 969.363, 1247.652 976.154 C 1243.610 982.944, 1237.163 993.900, 1233.325 1000.500 C 1229.487 1007.100, 1221.728 1020.321, 1216.083 1029.881 C 1210.438 1039.440, 1204.906 1048.890, 1203.791 1050.881 C 1202.676 1052.871, 1193.793 1068, 1184.052 1084.500 C 1174.311 1101, 1161.478 1122.825, 1155.535 1133 C 1149.591 1143.175, 1141.494 1156.900, 1137.540 1163.500 C 1128.443 1178.688, 1118.855 1194.903, 1117.436 1197.500 C 1114.988 1201.979, 1098.804 1229.208, 1092.620 1239.252 C 1088.979 1245.165, 1086 1250.246, 1086 1250.542 C 1086 1250.839, 1085.151 1252.300, 1084.114 1253.790 C 1083.076 1255.281, 1075.607 1267.638, 1067.516 1281.251 C 1059.425 1294.864, 1052.450 1306.222, 1052.016 1306.490 C 1051.582 1306.758, 1044.313 1307.645, 1035.864 1308.460 C 1012.182 1310.745, 1000.826 1311.925, 997 1312.498 C 995.075 1312.786, 988.775 1313.443, 983 1313.958 C 970.578 1315.064, 946.947 1317.555, 935 1319.017 C 930.325 1319.589, 920.200 1320.692, 912.500 1321.468 C 890.660 1323.669, 879.214 1324.888, 870 1325.997 C 865.325 1326.560, 855.200 1327.700, 847.500 1328.530 C 839.800 1329.360, 827.200 1330.718, 819.500 1331.548 C 811.800 1332.378, 801.675 1333.477, 797 1333.992 C 792.325 1334.506, 779.050 1335.874, 767.500 1337.032 C 740.850 1339.703, 740 1339.837, 740 1341.344 C 740 1342.813, 738.859 1342.398, 773.500 1353.515 C 788.350 1358.281, 803.425 1363.235, 807 1364.524 C 810.575 1365.813, 818.675 1368.659, 825 1370.848 C 910.365 1400.396, 957.065 1418.742, 1045 1457.274 C 1129.182 1494.162, 1209.813 1534.844, 1276 1573.826 C 1293.643 1584.216, 1333.775 1608.796, 1340 1613.023 C 1341.375 1613.957, 1347.675 1618.090, 1354 1622.208 C 1374.495 1635.550, 1388.351 1644.741, 1395.500 1649.737 C 1454.846 1691.203, 1469.862 1702.399, 1520.465 1742.910 C 1554.772 1770.376, 1555.500 1770.900, 1557.126 1769.274 C 1557.874 1768.526, 1555.302 1764.567, 1548.410 1755.856 C 1543.033 1749.060, 1535.256 1739.225, 1531.129 1734 C 1527.001 1728.775, 1519.915 1720, 1515.382 1714.500 C 1510.849 1709, 1500.108 1695.950, 1491.514 1685.500 C 1467.278 1656.032, 1447.666 1632.770, 1421.072 1601.950 C 1365.476 1537.520, 1298.989 1473.722, 1230.988 1419.552 C 1210.906 1403.554, 1207.285 1400.709, 1191.843 1388.802 C 1163.514 1366.957, 1151.787 1357.609, 1151.380 1356.548 C 1151.154 1355.959, 1160.257 1339.957, 1171.609 1320.988 C 1201.657 1270.778, 1237.301 1210.453, 1256.850 1176.722 C 1259.471 1172.200, 1265.131 1162.454, 1269.429 1155.064 C 1273.727 1147.674, 1278.096 1140.109, 1279.139 1138.252 C 1286.060 1125.931, 1299.338 1104, 1299.878 1104 C 1300.236 1104, 1301.281 1105.688, 1302.202 1107.750 C 1303.123 1109.813, 1305.973 1116.225, 1308.537 1122 C 1316.515 1139.975, 1323.655 1155.714, 1330.905 1171.309 C 1333.157 1176.154, 1335 1180.284, 1335 1180.486 C 1335 1180.688, 1336.629 1184.374, 1338.620 1188.677 C 1342.831 1197.778, 1346.804 1206.444, 1350 1213.500 C 1351.246 1216.250, 1353.607 1221.425, 1355.248 1225 C 1356.889 1228.575, 1359.363 1233.975, 1360.746 1237 C 1362.129 1240.025, 1364.777 1245.795, 1366.631 1249.823 C 1368.484 1253.851, 1370 1257.321, 1370 1257.535 C 1370 1257.749, 1372.025 1262.257, 1374.500 1267.554 C 1380.357 1280.090, 1380.614 1279.423, 1370.250 1278.603 C 1355.284 1277.418, 1323.126 1274.997, 1309 1273.991 C 1301.575 1273.462, 1287.400 1272.333, 1277.500 1271.481 C 1238.183 1268.098, 1240.811 1267.864, 1236.805 1275.114 C 1230.001 1287.427, 1227.663 1291.531, 1225.341 1295.230 C 1224.053 1297.282, 1223 1299.173, 1223 1299.434 C 1223 1299.897, 1217.236 1309.702, 1204.306 1331.233 C 1196.986 1343.423, 1196.988 1343.484, 1204.767 1344.933 C 1207.920 1345.520, 1212.525 1346.431, 1215 1346.958 C 1221.140 1348.263, 1258.419 1355.457, 1269.500 1357.474 C 1279.109 1359.224, 1290.284 1361.537, 1296 1362.961 C 1297.925 1363.440, 1301.525 1364.133, 1304 1364.500 C 1306.475 1364.867, 1310.075 1365.560, 1312 1366.039 C 1313.925 1366.519, 1318.875 1367.639, 1323 1368.530 C 1330.989 1370.254, 1340.947 1372.465, 1347.500 1373.969 C 1349.700 1374.474, 1356.450 1376.019, 1362.500 1377.402 C 1406.472 1387.457, 1439.818 1395.686, 1465 1402.698 C 1482.824 1407.661, 1482.959 1407.699, 1488.750 1409.431 C 1491.638 1410.294, 1496.138 1411.635, 1498.750 1412.410 C 1512.435 1416.473, 1542.894 1426.206, 1553.888 1430.030 C 1562.196 1432.920, 1564 1433.032, 1564 1430.653 C 1564 1429.122, 1557.349 1413.260, 1550.382 1398.177 C 1548.522 1394.149, 1547 1390.674, 1547 1390.454 C 1547 1390.235, 1545.891 1387.680, 1544.535 1384.777 C 1543.179 1381.875, 1540.298 1375.225, 1538.132 1370 C 1532.892 1357.362, 1521.142 1330.461, 1516.511 1320.500 C 1514.465 1316.100, 1511.324 1309.350, 1509.532 1305.500 C 1507.739 1301.650, 1499.061 1283.200, 1490.247 1264.500 C 1474.242 1230.541, 1455.308 1190.168, 1448.744 1176 C 1436.853 1150.335, 1431.178 1138.192, 1426.401 1128.192 C 1423.431 1121.973, 1421 1116.734, 1421 1116.551 C 1421 1116.368, 1418.075 1110.062, 1414.500 1102.538 C 1410.925 1095.014, 1408 1088.695, 1408 1088.497 C 1408 1088.298, 1404.360 1080.567, 1399.912 1071.318 C 1395.463 1062.068, 1390.909 1052.475, 1389.791 1050 C 1383.003 1034.966, 1377.511 1023.036, 1373.177 1013.906 C 1370.459 1008.183, 1366.379 999.450, 1364.111 994.500 C 1361.842 989.550, 1359.625 984.825, 1359.184 984 C 1358.355 982.447, 1354.809 979.700, 1311.399 946.978 C 1275.769 920.120, 1279.459 922.489, 1277.509 925.227  M 1577.021 1171.599 C 1577.050 1172.871, 1587.529 1177.766, 1609 1186.535 C 1656.324 1205.865, 1674.709 1214.860, 1697.500 1229.835 C 1716.010 1241.998, 1743.228 1266.204, 1741.514 1268.978 C 1737.701 1275.147, 1736.879 1298.918, 1740.042 1311.500 C 1746.848 1338.563, 1764.570 1357.155, 1792.364 1366.388 C 1810.888 1372.541, 1838.804 1367.581, 1847.999 1356.501 C 1850.835 1353.084, 1852.711 1352.864, 1856.586 1355.494 C 1858.617 1356.872, 1861.059 1358, 1862.011 1358 C 1866.394 1358, 1890 1339.685, 1890 1336.285 C 1890 1328.001, 1869.724 1298.474, 1854.195 1284.146 C 1796.415 1230.830, 1730.754 1197.477, 1646.500 1178.644 C 1619.248 1172.552, 1576.944 1168.263, 1577.021 1171.599  M 1948 1343.378 C 1948 1344.135, 1947.303 1345.334, 1946.45 1346.041 C 1945.598 1346.748, 1943.962 1349.391, 1942.814 1351.914 C 1929.428 1381.339, 1891.33 1396.794, 1849.115 1389.923 C 1836.396 1387.853, 1821.389 1384.972, 1807.5 1381.933 C 1788.224 1377.715, 1782.427 1376.906, 1768 1376.418 C 1753.304 1375.92, 1751.642 1374.696, 1794.5 1395.939 C 1835.204 1416.114, 1866.127 1435.586, 1881.685 1450.839 C 1889.468 1458.469, 1891.203 1461.221, 1897.238 1477.5 C 1898.5 1480, 1900 1485, 1901.5 1488.5 C 1912.5 1502.5, 1910.5 1540, 1897 1558.5 C 1916 1559, 1944 1533, 1964.5 1496 C 1978 1467, 1980.5 1403, 1948 1343.378" stroke="none" fill="#efd56f" fill-rule="evenodd"/>
  <path d="M 69.340 147.281 L 418.000 371.000 L 839.500 641.815 L 1051.815 781.608 L 595.688 722.364 L 359.500 477.293 L 210.297 318.500 L 143.949 241.658 Z M 1138 1534.5 L 1270.500 1605.271 L 1363.500 1661.809 L 1428.500 1707.469 L 1520 1782 L 1297.727 1712.500 Z" fill="#808080" fill-rule="evenodd"/>
</svg>