<svg xmlns="http://www.w3.org/2000/svg" viewBox="0 0 1897 1616" role="img" aria-labelledby="title">
  <title>SPEED AD emblem color</title>
  <path fill="#102a4c" fill-rule="evenodd" d="M824 1280 L836 1294 L899 1352 L984 1424 L1088 1500 L1162 1549 L1170 1552 L1170 1549 L1078 1445 L1016 1381 L994 1362 L940 1332 Z M146 302 L209 385 L329 534 L453 553 L457 551 L368 464 L309 410 L236 359 Z M316 2 L673 368 L1042 615 L1301 810 L1469 1148 L1648 1201 L1480 1182 L1522 1290 L1630 1269 L1707 1274 L1818 1329 L1833 1361 L1827 1398 L1862 1375 L1890 1327 L1896 1262 L1848 1115 L1797 1051 L1708 982 L1489 876 L1631 904 L1502 772 L1051 440 Z" />
  <path fill="#efd56f" fill-rule="evenodd" d="M659 1184 L892 1269 L1136 1383 L1305 1486 L1476 1612 L1296 1397 L1069 1200 L1219 947 L1298 1122 L1159 1113 L1117 1186 L1482 1275 L1278 828 L1198 767 L970 1151 Z M342 585 L668 915 L944 948 L897 1015 L648 1059 L327 1186 L952 1117 L1086 896 L1069 858 L745 820 L662 731 L1019 770 L1097 708 L1026 667 Z" />
  <path fill="#a2a39d" fill-rule="evenodd" d="M1072 1389 L1073 1393 L1217 1556 L1417 1612 L1417 1608 L1370 1569 L1293 1512 L1188 1448 L1074 1388 Z M2 2 L142 175 L514 564 L958 621 Z" />
</svg>
