<svg xmlns="http://www.w3.org/2000/svg" viewBox="0 0 1189 1013" role="img" aria-labelledby="title">
  <title>SPEED AD emblem silhouette</title>
  <path fill="#ffffff" fill-rule="evenodd" d="M672 871 L763 975 L888 1010 L882 1003 L845 973 L801 942 L730 900 Z M516 803 L554 839 L620 895 L686 943 L733 973 L730 967 L685 916 L655 884 L623 854 L609 845 L520 803 Z M413 742 L564 797 L696 858 L812 927 L925 1010 L817 881 L669 752 L764 593 L813 702 L726 697 L700 743 L929 798 L803 522 L753 482 L607 722 Z M214 367 L419 573 L592 594 L563 636 L411 662 L205 743 L596 700 L680 562 L669 537 L466 514 L414 458 L639 482 L687 444 L641 418 Z M91 189 L145 259 L206 334 L283 346 L286 345 L221 282 L191 255 L125 210 Z M198 2 L422 230 L644 378 L816 507 L921 719 L1036 754 L928 741 L955 808 L1014 795 L1076 799 L1112 812 L1143 836 L1146 876 L1168 860 L1184 832 L1188 792 L1155 694 L1116 650 L1069 615 L932 549 L1022 566 L941 484 L643 266 Z M1 1 L84 104 L322 353 L600 389 Z" />
</svg>
