<?xml version="1.0" encoding="utf-8"?>
<!-- Generator: Adobe Illustrator 27.4.0, SVG Export Plug-In . SVG Version: 6.00 Build 0)  -->
<svg version="1.1" id="レイヤー_1" xmlns="http://www.w3.org/2000/svg" xmlns:xlink="http://www.w3.org/1999/xlink" x="0px"
	 y="0px" viewBox="0 0 203.8 32.1" style="enable-background:new 0 0 203.8 32.1;" xml:space="preserve">
<g>
	<path d="M17.6,23.5c0-1.2-0.4-2.2-1.3-2.8c-0.9-0.7-2.4-1.3-4.7-2.1c-2.2-0.7-4-1.4-5.3-2.1C2.8,14.5,1,11.9,1,8.7
		C1,7,1.5,5.5,2.4,4.2s2.3-2.4,4.1-3.1s3.8-1.1,6-1.1s4.2,0.4,6,1.2s3.1,2,4.1,3.4s1.5,3.2,1.5,5h-6.5c0-1.4-0.5-2.6-1.4-3.4
		S14,5,12.4,5S9.6,5.3,8.7,6S7.4,7.6,7.4,8.7c0,1,0.5,1.9,1.5,2.6s2.5,1.3,4.5,1.9c3.7,1.1,6.4,2.5,8,4.1c1.7,1.6,2.5,3.7,2.5,6.1
		c0,2.7-1,4.8-3.1,6.4s-4.8,2.3-8.3,2.3c-2.4,0-4.6-0.4-6.6-1.3s-3.5-2.1-4.5-3.6S0,23.9,0,21.8h6.5c0,3.5,2.1,5.2,6.2,5.2
		c1.5,0,2.7-0.3,3.6-0.9C17.2,25.5,17.6,24.6,17.6,23.5z"/>
	<path d="M34.9,20.7v11.1h-6.5V0.3h12.2c2.4,0,4.4,0.4,6.2,1.3s3.2,2.1,4.1,3.7s1.4,3.4,1.4,5.4c0,3.1-1.1,5.5-3.2,7.3
		c-2.1,1.8-5,2.7-8.7,2.7C40.4,20.7,34.9,20.7,34.9,20.7z M34.9,15.4h5.8c1.7,0,3-0.4,3.9-1.2s1.3-2,1.3-3.4c0-1.5-0.5-2.8-1.4-3.7
		s-2.2-1.4-3.8-1.5h-5.9v9.8H34.9z"/>
	<path d="M75.8,18.1H63.4v8.4H78v5.2H57V0.3h21v5.2H63.4V13h12.4V18.1z"/>
	<path d="M100.7,18.1H88.2v8.4h14.6v5.2h-21V0.3h21v5.2H88.2V13h12.4L100.7,18.1L100.7,18.1z"/>
	<path d="M106.6,31.7V0.3h9.7c2.8,0,5.2,0.6,7.4,1.9s3.9,3,5.1,5.3c1.2,2.3,1.8,4.9,1.8,7.8v1.4c0,2.9-0.6,5.5-1.8,7.8
		s-2.9,4-5.1,5.3s-4.6,1.9-7.4,1.9C116.3,31.7,106.6,31.7,106.6,31.7z M113.1,5.6v21h3.1c2.5,0,4.5-0.8,5.8-2.5s2-4,2-7.1v-1.7
		c0-3.2-0.7-5.6-2-7.3s-3.3-2.5-5.8-2.5L113.1,5.6L113.1,5.6z"/>
	<path d="M167.8,25.3h-11.3l-2.2,6.5h-6.9l11.7-31.4h6l11.7,31.4h-6.9L167.8,25.3z M158.2,20h7.8l-3.9-11.7L158.2,20z"/>
	<path d="M179.8,31.7V0.3h9.7c2.8,0,5.2,0.6,7.4,1.9s3.9,3,5.1,5.3s1.8,4.9,1.8,7.8v1.4c0,2.9-0.6,5.5-1.8,7.8s-2.9,4-5.1,5.3
		c-2.2,1.3-4.6,1.9-7.4,1.9C189.5,31.7,179.8,31.7,179.8,31.7z M186.3,5.6v21h3.1c2.5,0,4.5-0.8,5.8-2.5s2-4,2-7.1v-1.7
		c0-3.2-0.7-5.6-2-7.3s-3.3-2.5-5.8-2.5L186.3,5.6L186.3,5.6z"/>
</g>
</svg>
