<?xml version="1.0" encoding="UTF-8"?>
<svg xmlns="http://www.w3.org/2000/svg" viewBox="0 0 1134 991" role="img" aria-label="SPEED AD header logo">
  <title>SPEED AD header logo</title>
  <g fill="#ffffff" stroke="#050505" stroke-width="2.4" stroke-linecap="round" stroke-linejoin="round" vector-effect="non-scaling-stroke">
    <path fill-rule="evenodd" d="M632 824 L632 829 L720 925 L835 959 L841 956 L841 950 L779 900 L736 871 L685 842 L640 821 Z M638 828 L652 832 L696 854 L746 884 L834 951 L724 921 Z M456 743 L455 750 L685 917 L691 921 L698 919 L698 911 L595 802 L462 742 Z M661 891 L664 887 L671 895 L667 896 Z M487 764 L490 761 L501 766 L500 768 L510 769 L516 775 L520 776 L517 773 L580 801 L585 806 L590 806 L601 817 L599 818 L618 835 L617 837 L614 834 L645 863 L643 864 L647 869 L648 867 L658 877 L659 888 L654 887 L569 826 L565 820 L564 822 L498 772 L489 768 Z M407 705 L406 711 L410 715 L566 775 L670 825 L764 883 L868 961 L875 960 L876 952 L784 842 L714 774 L644 717 L722 582 L762 667 L689 665 L662 707 L663 715 L762 734 L867 761 L874 756 L867 736 L758 499 L716 466 L708 465 L580 686 L417 702 Z M413 709 L582 692 L637 601 L711 470 L753 502 L869 754 L865 755 L751 726 L667 710 L691 670 L771 674 L722 569 L637 719 L702 771 L759 824 L806 875 L870 953 L861 949 L765 877 L678 823 L573 772 Z M223 360 L223 367 L403 552 L555 570 L556 573 L532 607 L392 634 L223 701 L217 707 L219 713 L567 673 L573 668 L648 542 L648 536 L639 517 L630 513 L451 493 L417 455 L439 455 L605 473 L651 438 L652 431 L614 407 L228 357 Z M228 363 L614 412 L647 434 L603 468 L402 447 L440 490 L451 499 L619 517 L635 521 L643 540 L565 668 L226 708 L235 702 L399 637 L538 611 L566 567 L406 547 Z M119 210 L119 217 L222 340 L280 350 L291 348 L291 340 L214 262 L129 209 Z M141 232 L144 233 L144 229 L149 229 L170 245 L175 245 L201 261 L203 265 L204 263 L206 267 L209 266 L234 294 L242 299 L244 304 L272 330 L271 332 L273 331 L284 342 L263 341 L267 337 L262 337 L261 340 L236 337 L238 335 L231 331 L228 334 L225 333 Z M208 35 L208 43 L241 79 L404 242 L647 405 L767 495 L859 685 L923 703 L921 705 L869 701 L865 705 L872 729 L890 770 L897 771 L954 759 L983 759 L1002 763 L1030 775 L1055 797 L1060 809 L1059 836 L1063 838 L1070 836 L1084 823 L1093 810 L1102 788 L1105 750 L1099 726 L1087 705 L1084 682 L1072 657 L1056 636 L1012 597 L960 564 L917 543 L915 540 L918 539 L944 545 L947 542 L947 536 L893 483 L823 424 L750 368 L585 254 L461 176 L302 81 L217 33 Z M212 39 L254 60 L401 146 L593 266 L742 369 L819 428 L889 487 L941 539 L877 526 L871 526 L871 528 L947 563 L1004 598 L1031 619 L1054 642 L1071 666 L1081 690 L1082 707 L1094 727 L1100 753 L1097 787 L1089 806 L1079 820 L1064 833 L1065 806 L1058 792 L1034 771 L1008 759 L986 754 L965 753 L931 757 L894 766 L870 708 L872 706 L954 714 L965 713 L910 692 L865 682 L862 679 L771 491 L631 387 L409 239 L287 118 Z M29 31 L30 40 L110 132 L319 352 L563 385 L573 382 L573 376 L443 289 L41 30 L32 28 Z M34 34 L485 323 L567 379 L323 348 L143 159 Z"/>
    <path fill-rule="evenodd" d="M641 829 L723 919 L832 951 L781 910 L742 883 L693 854 Z M1071 738 L1068 743 L1072 745 L1075 741 Z M416 709 L560 765 L672 818 L760 872 L866 951 L824 898 L769 836 L707 777 L636 719 L722 567 L772 674 L691 672 L668 710 L744 723 L867 754 L751 501 L712 472 L583 693 Z M230 364 L407 546 L552 562 L568 566 L537 613 L398 639 L229 706 L566 666 L642 539 L633 521 L448 500 L401 446 L603 466 L645 434 L616 414 Z M215 40 L271 100 L410 238 L632 386 L772 490 L864 680 L918 693 L963 710 L967 714 L959 716 L872 708 L894 764 L957 752 L995 754 L1015 760 L1035 770 L1059 791 L1064 800 L1057 783 L1039 762 L1019 747 L973 722 L979 721 L1034 732 L1048 732 L1066 726 L1076 717 L1081 705 L1078 685 L1070 667 L1047 636 L1003 599 L946 564 L872 530 L869 527 L873 524 L939 538 L885 485 L817 428 L744 372 L583 261 L405 150 Z M881 607 L888 605 L931 615 L988 640 L1008 653 L1034 676 L1047 693 L1049 702 L1037 711 L1029 708 L1023 714 L1013 718 L1002 718 L990 713 L973 694 L970 684 L972 660 L958 645 L931 627 Z M36 36 L127 140 L322 346 L565 378 Z"/>
    <path fill-rule="evenodd" d="M486 764 L667 895 L671 893 L673 895 L590 807 L491 762 Z M659 880 L666 887 L663 891 L658 888 Z M140 230 L228 335 L234 335 L227 334 L231 330 L239 335 L236 336 L255 339 L267 336 L268 339 L263 340 L284 343 L209 267 L146 228 L144 234 Z"/>
    <path fill-rule="evenodd" d="M974 722 L1019 746 L1051 773 L1065 799 L1067 819 L1064 831 L1067 830 L1087 807 L1098 776 L1097 741 L1084 711 L1081 708 L1077 717 L1066 727 L1048 733 L1018 731 Z M1071 737 L1076 741 L1072 746 L1067 743 Z M882 607 L931 626 L958 644 L973 660 L971 684 L974 694 L990 712 L1002 717 L1013 717 L1023 713 L1029 707 L1037 710 L1048 702 L1046 693 L1033 676 L1008 654 L988 641 L931 616 L894 607 Z"/>
  </g>
</svg>
