<?xml version="1.0" encoding="UTF-8"?>
<svg xmlns="http://www.w3.org/2000/svg" width="2000" height="2000" viewBox="0 0 2000 2000">
  <path id="navy" fill="#102A4C" fill-rule="evenodd" d="M1153 1546 L1298 1712 L1312 1715 L1326 1720 L1330 1720 L1333 1722 L1340 1723 L1344 1725 L1348 1725 L1355 1728 L1359 1728 L1362 1730 L1369 1731 L1384 1736 L1388 1736 L1391 1738 L1427 1747 L1475 1762 L1482 1763 L1495 1768 L1498 1768 L1498 1765 L1492 1759 L1428 1707 L1401 1687 L1361 1660 L1350 1654 L1336 1644 L1316 1633 L1313 1630 L1263 1601 L1261 1601 L1184 1559 L1156 1545 Z M905 1436 L905 1438 L950 1481 L1013 1537 L1065 1580 L1122 1623 L1169 1656 L1248 1708 L1251 1708 L1251 1705 L1173 1616 L1129 1569 L1096 1536 L1075 1518 L1053 1504 L1017 1486 L911 1437 Z M227 458 L229 463 L242 478 L247 486 L256 496 L261 504 L317 574 L319 578 L330 590 L410 690 L424 693 L433 693 L446 696 L453 696 L459 698 L467 698 L502 704 L510 704 L515 706 L528 707 L534 709 L538 708 L538 706 L468 638 L389 565 L319 516 L228 457 Z M397 159 L397 161 L426 192 L751 521 L816 562 L851 586 L862 592 L946 648 L968 664 L980 671 L1084 744 L1090 747 L1226 846 L1298 900 L1303 905 L1331 925 L1382 965 L1394 984 L1416 1028 L1416 1030 L1423 1042 L1423 1044 L1456 1110 L1456 1112 L1464 1126 L1477 1155 L1490 1179 L1490 1181 L1550 1303 L1552 1305 L1560 1305 L1565 1307 L1591 1310 L1595 1312 L1606 1313 L1610 1315 L1639 1321 L1651 1326 L1673 1332 L1696 1342 L1704 1344 L1728 1355 L1733 1359 L1732 1360 L1725 1359 L1721 1357 L1716 1357 L1689 1351 L1683 1351 L1679 1349 L1666 1348 L1661 1346 L1652 1346 L1638 1343 L1627 1343 L1626 1342 L1606 1341 L1605 1340 L1561 1339 L1560 1342 L1566 1354 L1569 1364 L1588 1407 L1603 1445 L1607 1445 L1618 1441 L1647 1435 L1651 1433 L1703 1425 L1740 1424 L1741 1425 L1755 1425 L1756 1426 L1779 1428 L1814 1436 L1854 1452 L1883 1470 L1897 1483 L1902 1490 L1901 1485 L1899 1484 L1900 1483 L1899 1479 L1897 1477 L1894 1468 L1889 1459 L1872 1442 L1846 1424 L1817 1407 L1785 1391 L1783 1391 L1755 1376 L1756 1375 L1762 1376 L1763 1375 L1776 1375 L1783 1377 L1791 1377 L1800 1380 L1819 1383 L1823 1385 L1828 1385 L1839 1388 L1847 1388 L1853 1390 L1882 1390 L1905 1385 L1916 1380 L1925 1374 L1934 1365 L1940 1356 L1943 1348 L1947 1344 L1948 1338 L1948 1326 L1946 1320 L1945 1309 L1934 1281 L1915 1250 L1891 1221 L1875 1205 L1850 1183 L1809 1152 L1757 1119 L1717 1097 L1713 1096 L1677 1077 L1640 1061 L1638 1059 L1609 1048 L1607 1046 L1602 1045 L1592 1040 L1589 1040 L1569 1032 L1566 1029 L1567 1028 L1586 1029 L1593 1031 L1599 1031 L1604 1033 L1615 1034 L1660 1045 L1692 1055 L1695 1057 L1701 1058 L1704 1060 L1711 1061 L1711 1058 L1667 1008 L1638 979 L1581 927 L1500 860 L1387 774 L1238 668 L1094 572 L904 453 L732 349 L725 346 L686 322 L627 289 L584 263 L568 255 L556 247 L549 244 L542 239 L540 239 L426 173 L417 169 L400 158 Z M1576 1170 L1586 1168 L1618 1170 L1665 1179 L1717 1196 L1755 1212 L1775 1222 L1797 1235 L1824 1254 L1854 1280 L1854 1282 L1859 1284 L1869 1293 L1882 1312 L1889 1328 L1891 1330 L1892 1337 L1890 1341 L1881 1350 L1867 1359 L1857 1359 L1852 1356 L1840 1365 L1827 1370 L1798 1371 L1790 1369 L1774 1362 L1765 1356 L1755 1347 L1746 1335 L1740 1323 L1735 1305 L1735 1280 L1739 1268 L1729 1257 L1700 1234 L1674 1218 L1636 1200 L1588 1181 L1578 1176 L1576 1174 Z M81 159 L81 162 L100 186 L102 187 L106 194 L108 195 L140 237 L142 238 L165 267 L218 327 L360 478 L373 490 L435 556 L448 568 L460 582 L502 624 L538 663 L595 721 L1039 779 L1040 777 L1039 773 L1032 770 L1031 768 L1008 754 L1007 752 L998 746 L991 743 L990 741 L984 738 L974 730 L972 730 L959 720 L951 716 L950 714 L943 711 L942 709 L921 695 L919 695 L918 693 L907 687 L904 684 L902 684 L901 682 L890 676 L889 674 L882 671 L881 669 L872 663 L870 663 L843 644 L841 644 L840 642 L799 617 L798 615 L796 615 L776 601 L774 601 L773 599 L754 588 L748 583 L737 577 L736 575 L695 550 L686 543 L670 534 L642 515 L640 515 L639 513 L620 502 L606 492 L590 483 L589 481 L560 464 L559 462 L557 462 L554 459 L552 459 L551 457 L485 416 L484 414 L482 414 L476 409 L468 405 L467 403 L460 400 L459 398 L448 392 L425 376 L423 376 L422 374 L418 373 L417 371 L415 371 L397 358 L381 349 L380 347 L327 314 L326 312 L324 312 L304 298 L302 298 L301 296 L290 290 L267 274 L265 274 L264 272 L241 258 L223 245 L187 223 L186 221 L133 188 L124 181 L100 167 L85 157 L83 157 Z"/>
  <path id="gold" fill="#EFD56F" fill-rule="evenodd" d="M1756 1376 L1817 1406 L1846 1423 L1872 1441 L1888 1456 L1900 1479 L1901 1483 L1900 1484 L1902 1485 L1902 1488 L1908 1498 L1911 1516 L1910 1517 L1911 1518 L1910 1530 L1907 1545 L1905 1549 L1896 1557 L1911 1556 L1923 1550 L1950 1523 L1954 1515 L1961 1506 L1963 1499 L1969 1489 L1974 1473 L1974 1467 L1976 1465 L1977 1450 L1978 1449 L1978 1434 L1977 1433 L1978 1421 L1976 1418 L1977 1414 L1975 1411 L1976 1406 L1974 1403 L1974 1398 L1972 1393 L1973 1390 L1956 1352 L1949 1342 L1944 1348 L1941 1356 L1935 1365 L1925 1375 L1912 1383 L1894 1389 L1882 1391 L1853 1391 L1847 1389 L1839 1389 L1828 1386 L1823 1386 L1819 1384 L1800 1381 L1791 1378 L1783 1378 L1776 1376 L1763 1376 L1762 1377 Z M740 1340 L740 1342 L776 1353 L788 1358 L801 1361 L812 1366 L815 1366 L835 1374 L838 1374 L841 1376 L855 1380 L973 1425 L1061 1463 L1113 1487 L1217 1539 L1305 1590 L1386 1642 L1466 1699 L1554 1769 L1557 1768 L1535 1739 L1473 1663 L1415 1595 L1377 1553 L1328 1504 L1274 1455 L1223 1413 L1183 1383 L1150 1356 L1150 1354 L1175 1314 L1253 1182 L1297 1105 L1300 1103 L1330 1170 L1332 1172 L1338 1188 L1346 1203 L1349 1212 L1351 1214 L1354 1223 L1362 1238 L1365 1247 L1367 1249 L1379 1278 L1378 1279 L1368 1279 L1356 1277 L1264 1271 L1254 1269 L1240 1269 L1198 1342 L1202 1344 L1213 1345 L1217 1347 L1238 1350 L1243 1352 L1269 1356 L1274 1358 L1280 1358 L1289 1361 L1294 1361 L1298 1363 L1309 1364 L1313 1366 L1332 1369 L1336 1371 L1354 1374 L1371 1379 L1380 1380 L1384 1382 L1413 1388 L1417 1390 L1434 1393 L1449 1398 L1453 1398 L1468 1403 L1475 1404 L1478 1406 L1482 1406 L1495 1411 L1502 1412 L1505 1414 L1543 1425 L1561 1432 L1563 1431 L1563 1428 L1560 1423 L1559 1418 L1554 1409 L1551 1400 L1549 1398 L1543 1382 L1541 1380 L1538 1370 L1530 1354 L1522 1333 L1454 1190 L1449 1177 L1447 1175 L1441 1160 L1433 1145 L1430 1136 L1425 1128 L1403 1078 L1401 1076 L1390 1051 L1388 1049 L1385 1040 L1379 1029 L1374 1016 L1369 1008 L1359 984 L1354 979 L1279 923 L1276 926 L1273 933 L1255 962 L1255 964 L1204 1049 L1204 1051 L1167 1112 L1144 1153 L1131 1173 L1128 1180 L1118 1195 L1118 1197 L1107 1214 L1101 1226 L1095 1234 L1059 1296 L1051 1307 L1024 1309 L1015 1311 L1005 1311 L987 1314 L975 1314 L967 1316 L947 1317 L922 1321 L901 1322 L893 1324 L873 1325 L866 1327 L856 1327 L847 1329 L828 1330 L820 1332 L800 1333 L792 1335 L782 1335 L781 1336 L772 1336 L771 1337 Z M423 741 L423 744 L600 919 L750 1071 L759 1073 L779 1074 L787 1076 L807 1077 L815 1079 L855 1082 L889 1087 L928 1090 L936 1092 L956 1093 L957 1094 L975 1095 L994 1098 L1005 1098 L1013 1100 L1021 1100 L1026 1102 L985 1163 L978 1171 L729 1215 L637 1250 L627 1255 L616 1258 L606 1263 L567 1277 L565 1279 L562 1279 L557 1282 L546 1285 L544 1287 L533 1290 L528 1293 L505 1301 L495 1306 L492 1306 L454 1322 L443 1325 L441 1327 L411 1338 L408 1340 L408 1342 L421 1342 L439 1339 L450 1339 L458 1337 L479 1336 L487 1334 L497 1334 L515 1331 L554 1328 L561 1326 L572 1326 L589 1323 L600 1323 L606 1321 L644 1318 L661 1315 L672 1315 L680 1313 L699 1312 L707 1310 L719 1310 L736 1307 L747 1307 L755 1305 L764 1305 L782 1302 L801 1301 L809 1299 L846 1296 L853 1294 L865 1294 L882 1291 L892 1291 L899 1289 L918 1288 L953 1283 L963 1283 L970 1281 L991 1280 L997 1278 L1015 1277 L1032 1274 L1091 1176 L1111 1145 L1114 1138 L1126 1120 L1137 1100 L1146 1087 L1152 1075 L1167 1052 L1149 1013 L1141 1013 L1135 1011 L1125 1011 L1108 1008 L1099 1008 L1093 1006 L1071 1005 L1065 1003 L1029 1000 L1021 998 L1004 997 L997 995 L961 992 L954 990 L934 989 L928 987 L917 987 L901 984 L891 984 L884 982 L866 981 L859 979 L841 978 L834 976 L825 976 L743 887 L748 886 L749 887 L779 889 L798 892 L808 892 L816 894 L836 895 L843 897 L881 900 L889 902 L907 903 L914 905 L933 906 L941 908 L950 908 L966 911 L976 911 L983 913 L1001 914 L1009 916 L1018 916 L1026 918 L1045 919 L1053 921 L1063 921 L1064 922 L1090 924 L1099 926 L1176 872 L1180 868 L1179 865 L1131 838 L1113 826 L1105 823 L1071 820 L1064 818 L1047 817 L1039 815 L981 809 L973 807 L964 807 L949 804 L940 804 L932 802 L924 802 L868 794 L851 793 L844 791 L811 788 L804 786 L787 785 L780 783 L746 780 L716 775 L683 772 L676 770 L659 769 L652 767 L635 766 L613 762 L595 761 L588 759 L570 758 L563 756 L552 756 L537 753 L528 753 L521 751 L503 750 L496 748 L488 748 L472 745 L463 745 L456 743 L435 742 L428 740 Z"/>
</svg>
