<svg xmlns="http://www.w3.org/2000/svg" viewBox="0 0 1200 630" width="1200" height="630" preserveAspectRatio="xMidYMid slice" role="img" aria-label="Press Release | SPEED AD News">
  <defs>
    <linearGradient id="prsBg" x1="0" y1="0" x2="0" y2="1">
      <stop offset="0%" stop-color="#dde2bd"/>
      <stop offset="100%" stop-color="#c0c896"/>
    </linearGradient>
  </defs>
  <rect width="1200" height="630" fill="url(#prsBg)"/>
  <g stroke="#4a4d2a" stroke-width="2" opacity="0.10" fill="none">
    <line x1="1040" y1="60"  x2="1140" y2="60"/>
    <line x1="1040" y1="90"  x2="1110" y2="90"/>
    <line x1="1040" y1="120" x2="1140" y2="120"/>
    <line x1="1040" y1="150" x2="1090" y2="150"/>
  </g>
  <g transform="translate(600,240)" fill="none" stroke="#4a4d2a" stroke-width="10" stroke-linejoin="round" stroke-linecap="round">
    <path d="M -90 -120 L 60 -120 L 110 -70 L 110 130 L -90 130 Z"/>
    <path d="M 60 -120 L 60 -70 L 110 -70"/>
    <line x1="-60" y1="-30" x2="80" y2="-30"/>
    <line x1="-60" y1="10"  x2="80" y2="10"/>
    <line x1="-60" y1="50"  x2="40" y2="50"/>
    <line x1="-60" y1="90"  x2="80" y2="90"/>
  </g>
  <line x1="560" y1="400" x2="640" y2="400" stroke="#b08544" stroke-width="2"/>
  <text x="600" y="448" text-anchor="middle" font-family="'Cormorant Garamond','Noto Serif JP',serif" font-size="34" font-weight="500" letter-spacing="14" fill="#4a4d2a">PRESS RELEASE</text>
</svg>
